<svg width="24" height="24" viewBox="0 0 24 24" fill="none" xmlns="http://www.w3.org/2000/svg">
<path fill-rule="evenodd" clip-rule="evenodd" d="M1.25 12C1.25 6.06294 6.06294 1.25 12 1.25C17.937 1.25 22.75 6.06293 22.75 12C22.75 17.937 17.937 22.75 12 22.75C6.06293 22.75 1.25 17.937 1.25 12ZM12 2.75C6.89136 2.75 2.75 6.89136 2.75 12C2.75 17.1086 6.89137 21.25 12 21.25C17.1086 21.25 21.25 17.1086 21.25 12C21.25 6.89137 17.1086 2.75 12 2.75Z" fill="black"/>
<path fill-rule="evenodd" clip-rule="evenodd" d="M12.5464 1.45203C12.8763 1.20152 13.3468 1.26587 13.5973 1.59575L13 2.04933C13.5973 1.59575 13.5971 1.59551 13.5973 1.59575L13.5981 1.59679L13.5992 1.59819L13.6021 1.60209L13.6111 1.61424C13.6186 1.62427 13.6288 1.63814 13.6415 1.65582C13.6671 1.69116 13.703 1.74168 13.7477 1.80693C13.837 1.93739 13.9618 2.12688 14.1102 2.37167C14.4067 2.86099 14.7982 3.57287 15.1886 4.47742C15.9689 6.28522 16.75 8.87471 16.75 11.9999C16.75 15.1251 15.9689 17.7146 15.1886 19.5225C14.7982 20.427 14.4067 21.1389 14.1102 21.6282C13.9618 21.873 13.837 22.0625 13.7477 22.193C13.703 22.2582 13.6671 22.3088 13.6416 22.3441C13.6288 22.3618 13.6186 22.3757 13.6112 22.3857L13.6021 22.3978L13.5992 22.4017L13.5981 22.4031C13.5979 22.4034 13.5973 22.4042 13 21.9506L13.5973 22.4042C13.3468 22.7341 12.8763 22.7984 12.5464 22.5479C12.2168 22.2976 12.1523 21.8277 12.4021 21.4979L12.4027 21.497L12.4061 21.4925L12.4259 21.4654C12.4443 21.44 12.4728 21.3998 12.5102 21.3453C12.5849 21.2362 12.6944 21.0702 12.8273 20.8509C13.0933 20.4119 13.4518 19.7612 13.8114 18.928C14.5311 17.2605 15.25 14.8747 15.25 11.9999C15.25 9.12514 14.5311 6.73935 13.8114 5.07184C13.4518 4.23874 13.0933 3.58797 12.8273 3.14905C12.6944 2.92972 12.5849 2.76369 12.5102 2.65467C12.4728 2.60017 12.4443 2.55996 12.4259 2.5345L12.4061 2.50745L12.4027 2.5029C12.1525 2.17304 12.2167 1.70243 12.5464 1.45203ZM12.402 2.50192C12.4018 2.5017 12.402 2.50198 12.402 2.50192Z" fill="black"/>
<path fill-rule="evenodd" clip-rule="evenodd" d="M11 2.04932C10.4027 1.59575 10.4025 1.59597 10.4023 1.59622L10.4009 1.59818L10.3979 1.60208L10.3889 1.61423C10.3814 1.62426 10.3712 1.63814 10.3585 1.65581C10.3329 1.69115 10.2971 1.74168 10.2524 1.80692C10.163 1.93739 10.0382 2.12688 9.88983 2.37166C9.59331 2.86099 9.20182 3.57287 8.8114 4.47742C8.03113 6.28521 7.25 8.87471 7.25 11.9999C7.25 15.1251 8.03113 17.7146 8.8114 19.5225C9.20182 20.427 9.59331 21.1389 9.88983 21.6282C10.0382 21.873 10.163 22.0625 10.2524 22.193C10.2971 22.2582 10.3329 22.3088 10.3585 22.3441C10.3712 22.3618 10.3814 22.3757 10.3889 22.3857L10.3979 22.3978L10.4008 22.4017L10.4019 22.4031C10.4021 22.4034 10.4027 22.4042 11 21.9506L10.4027 22.4042C10.6532 22.7341 11.1237 22.7984 11.4536 22.5479C11.7833 22.2975 11.8478 21.8273 11.5976 21.4974L11.5939 21.4925L11.5742 21.4654C11.5558 21.44 11.5272 21.3998 11.4898 21.3453C11.4151 21.2362 11.3056 21.0702 11.1727 20.8509C10.9067 20.4119 10.5482 19.7612 10.1886 18.928C9.46887 17.2605 8.75 14.8747 8.75 11.9999C8.75 9.12513 9.46887 6.73934 10.1886 5.07184C10.5482 4.23873 10.9067 3.58796 11.1727 3.14905C11.3056 2.92971 11.4151 2.76368 11.4898 2.65466C11.5272 2.60017 11.5558 2.55996 11.5742 2.5345L11.5939 2.50744L11.5976 2.50251C11.5975 2.5027 11.5973 2.5029 11 2.04932Z" fill="black"/>
<path fill-rule="evenodd" clip-rule="evenodd" d="M1.87964 15.5C1.87964 15.0858 2.21543 14.75 2.62964 14.75H21.3704C21.7846 14.75 22.1204 15.0858 22.1204 15.5C22.1204 15.9142 21.7846 16.25 21.3704 16.25H2.62964C2.21543 16.25 1.87964 15.9142 1.87964 15.5Z" fill="black"/>
<path fill-rule="evenodd" clip-rule="evenodd" d="M1.87964 8.5C1.87964 8.08579 2.21543 7.75 2.62964 7.75H21.3704C21.7846 7.75 22.1204 8.08579 22.1204 8.5C22.1204 8.91421 21.7846 9.25 21.3704 9.25H2.62964C2.21543 9.25 1.87964 8.91421 1.87964 8.5Z" fill="black"/>
</svg>
