<svg width="19" height="18" viewBox="0 0 19 18" fill="none" xmlns="http://www.w3.org/2000/svg">
<path fill-rule="evenodd" clip-rule="evenodd" d="M-0.208374 9C-0.208374 3.84111 4.18983 -0.25 9.49996 -0.25C14.8101 -0.25 19.2083 3.84111 19.2083 9C19.2083 14.1589 14.8101 18.25 9.49996 18.25C4.18983 18.25 -0.208374 14.1589 -0.208374 9ZM6.23805 15.5725C4.94345 15.003 3.85053 14.1057 3.0722 13H5.59206C5.70758 13.7716 5.86616 14.4886 6.07633 15.1258C6.12581 15.2758 6.17963 15.4251 6.23805 15.5725ZM7.61712 13C7.71141 13.5554 7.83036 14.0587 7.97567 14.4992C8.43639 15.8959 8.99672 16.25 9.49996 16.25C10.0032 16.25 10.5635 15.8959 11.0242 14.4992C11.1696 14.0587 11.2885 13.5554 11.3828 13H7.61712ZM11.6063 11H7.39365C7.3529 10.3675 7.33329 9.69763 7.33329 9C7.33329 8.30237 7.3529 7.6325 7.39365 7H11.6063C11.647 7.6325 11.6666 8.30237 11.6666 9C11.6666 9.69763 11.647 10.3675 11.6063 11ZM13.4079 13C13.2923 13.7716 13.1338 14.4886 12.9236 15.1258C12.8741 15.2758 12.8203 15.4251 12.7619 15.5725C14.0565 15.003 15.1494 14.1057 15.9277 13H13.4079ZM16.9097 11H13.6102C13.6491 10.3495 13.6666 9.67892 13.6666 9C13.6666 8.32108 13.6491 7.65054 13.6102 7H16.9097C17.1043 7.63714 17.2083 8.30851 17.2083 9C17.2083 9.69149 17.1043 10.3629 16.9097 11ZM15.9277 5C15.1494 3.89434 14.0565 2.99698 12.7619 2.42755C12.8203 2.57494 12.8741 2.72423 12.9236 2.87424C13.1338 3.51141 13.2923 4.22845 13.4079 5H15.9277ZM11.3828 5C11.2885 4.44461 11.1696 3.94128 11.0242 3.50076C10.5635 2.10406 10.0032 1.75 9.49996 1.75C8.99672 1.75 8.43639 2.10406 7.97567 3.50076C7.83036 3.94128 7.71141 4.44461 7.61712 5H11.3828ZM5.59206 5C5.70758 4.22845 5.86616 3.51141 6.07633 2.87424C6.12581 2.72423 6.17962 2.57494 6.23805 2.42755C4.94345 2.99698 3.85053 3.89434 3.0722 5H5.59206ZM2.09025 7C1.89561 7.63714 1.79163 8.30851 1.79163 9C1.79163 9.69149 1.89561 10.3629 2.09025 11H5.38969C5.35079 10.3495 5.33329 9.67892 5.33329 9C5.33329 8.32108 5.35079 7.65054 5.38969 7H2.09025Z" fill="black"/>
</svg>
